<?xml version="1.0" standalone="no"?>
<!DOCTYPE svg PUBLIC "-//W3C//DTD SVG 20010904//EN"
 "http://www.w3.org/TR/2001/REC-SVG-20010904/DTD/svg10.dtd">
<svg version="1.0" xmlns="http://www.w3.org/2000/svg"
 width="1024.000000pt" height="1024.000000pt" viewBox="0 0 1024.000000 1024.000000"
 preserveAspectRatio="xMidYMid meet">
<metadata>
Created by potrace 1.14, written by Peter Selinger 2001-2017
</metadata>
<g transform="translate(0.000000,1024.000000) scale(0.100000,-0.100000)"
fill="#000000" stroke="none">
<path d="M4858 10235 c-2 -1 -50 -5 -108 -9 -58 -3 -116 -8 -130 -10 -22 -4
-121 -15 -185 -21 -37 -4 -289 -46 -295 -50 -3 -2 -26 -6 -50 -10 -93 -14
-409 -98 -580 -155 -543 -181 -1007 -424 -1475 -776 -82 -62 -161 -123 -175
-136 -14 -13 -55 -48 -90 -78 -269 -227 -654 -647 -805 -877 -15 -24 -32 -40
-38 -36 -5 3 -7 1 -3 -5 3 -6 -1 -17 -9 -25 -8 -9 -15 -18 -15 -20 0 -2 -24
-40 -52 -83 -29 -44 -87 -137 -130 -209 -42 -71 -82 -136 -88 -142 -6 -7 -9
-13 -6 -13 2 0 -7 -21 -21 -47 -38 -69 -117 -230 -143 -288 -12 -27 -33 -72
-45 -100 -13 -27 -45 -107 -71 -178 -36 -92 -53 -126 -63 -122 -11 4 -11 2 -2
-8 8 -11 5 -30 -13 -81 -14 -37 -25 -69 -25 -71 -1 -3 -4 -18 -7 -35 -4 -16
-11 -30 -17 -30 -6 0 -8 -3 -5 -6 3 -3 -3 -38 -14 -77 -11 -39 -22 -78 -23
-87 -2 -8 -4 -16 -5 -17 -2 -2 -3 -6 -4 -10 -1 -5 -5 -17 -8 -28 -4 -11 -14
-55 -23 -98 -11 -53 -20 -75 -28 -71 -9 5 -9 4 -2 -4 8 -8 4 -46 -12 -124 -22
-112 -25 -130 -38 -218 -9 -64 -13 -95 -21 -175 -3 -38 -8 -73 -10 -76 -25
-43 -24 -895 1 -1029 2 -14 6 -52 9 -85 2 -33 7 -71 10 -85 4 -14 8 -41 10
-60 3 -19 5 -35 6 -35 3 0 13 -81 14 -112 1 -18 4 -33 7 -33 4 0 10 -21 13
-47 11 -72 14 -84 47 -221 17 -70 32 -135 34 -145 2 -9 7 -22 10 -27 3 -5 8
-18 10 -27 2 -10 13 -52 25 -93 13 -41 23 -85 24 -97 0 -11 4 -19 7 -18 6 4
45 -115 41 -127 -1 -5 3 -8 9 -8 7 0 9 -10 7 -25 -3 -13 -2 -22 2 -20 4 3 15
-17 25 -43 9 -26 23 -60 30 -77 7 -16 23 -54 34 -82 11 -29 37 -88 58 -130 20
-43 38 -80 38 -83 0 -3 6 -15 13 -27 7 -13 9 -23 5 -23 -4 0 -3 -4 2 -8 19
-13 66 -113 59 -124 -4 -7 -3 -8 4 -4 7 4 12 3 12 -3 0 -6 11 -27 25 -47 14
-20 23 -40 20 -44 -3 -5 -1 -10 3 -12 16 -6 82 -130 76 -140 -4 -6 -3 -8 3 -5
5 4 16 -6 24 -21 8 -15 18 -31 22 -37 4 -5 35 -53 69 -105 34 -52 65 -96 70
-98 4 -2 8 -9 8 -16 0 -7 9 -21 20 -31 11 -10 20 -22 20 -27 0 -5 11 -21 25
-36 14 -15 23 -34 20 -42 -4 -8 -3 -11 1 -8 8 9 15 2 96 -103 37 -48 64 -90
60 -94 -4 -5 -2 -5 5 -1 14 8 36 -27 25 -39 -4 -5 -2 -5 4 -2 6 4 31 -17 55
-46 24 -28 69 -78 99 -111 30 -32 53 -63 52 -70 -2 -6 -1 -8 3 -5 8 9 183
-164 177 -175 -3 -5 -1 -6 5 -3 5 4 23 -8 39 -26 16 -18 45 -45 64 -61 93 -77
148 -131 143 -139 -4 -6 -1 -7 7 -2 7 4 15 3 19 -2 7 -12 186 -153 223 -177
15 -10 25 -23 21 -29 -3 -5 -2 -7 4 -4 5 4 24 -4 41 -16 16 -12 39 -28 51 -36
11 -8 17 -19 14 -24 -3 -6 -1 -7 5 -3 8 5 163 -88 217 -131 6 -5 32 -19 58
-33 26 -14 58 -34 70 -45 12 -11 22 -18 22 -17 0 2 12 -2 27 -9 15 -6 25 -16
21 -22 -3 -6 -1 -7 5 -3 15 9 75 -22 67 -34 -4 -6 1 -7 11 -3 13 5 15 3 9 -7
-5 -8 -4 -11 3 -6 13 8 62 -13 62 -27 0 -6 3 -8 6 -4 7 7 139 -57 168 -82 11
-9 16 -11 13 -4 -4 6 23 -3 60 -21 38 -18 95 -43 128 -56 33 -13 64 -27 70
-32 5 -4 17 -8 28 -8 10 0 16 -3 14 -7 -3 -5 5 -9 16 -10 12 0 78 -21 147 -46
159 -57 145 -52 218 -72 34 -10 62 -22 62 -27 0 -5 4 -7 9 -3 5 3 45 -4 88
-16 43 -12 84 -22 91 -22 6 0 12 -3 12 -7 0 -3 8 -6 18 -6 9 -1 31 -4 47 -7
17 -3 46 -9 65 -12 19 -3 42 -8 50 -11 8 -3 29 -8 45 -10 17 -3 41 -7 55 -10
25 -6 116 -21 180 -29 19 -3 51 -8 70 -11 19 -3 55 -7 80 -10 64 -7 73 -9 87
-17 6 -4 14 -3 18 3 4 6 10 8 15 5 42 -26 777 -27 995 0 22 2 65 7 95 10 68 8
92 11 155 21 28 5 69 9 92 9 22 0 39 3 36 8 -2 4 2 7 9 8 18 1 49 7 138 25 41
9 86 18 100 21 43 9 55 11 55 13 0 1 11 3 25 6 117 21 623 184 692 224 10 6
22 10 27 10 11 0 132 53 176 78 17 9 31 15 33 14 1 -1 16 5 32 13 17 9 36 13
43 9 7 -4 9 -4 5 1 -4 4 25 24 65 45 40 20 91 47 114 59 23 13 48 19 54 15 7
-4 9 -3 6 3 -4 6 33 33 82 61 48 27 98 56 111 63 13 8 33 22 44 31 11 10 29
21 40 24 12 4 23 10 26 13 3 3 32 24 65 46 33 22 66 46 74 53 7 7 20 11 28 8
8 -3 12 -2 8 3 -8 13 52 54 66 45 8 -4 9 -3 5 4 -4 6 6 19 21 29 15 10 33 22
40 28 37 32 78 60 86 57 5 -1 6 2 2 8 -3 5 -2 10 3 10 4 0 17 8 28 17 10 10
60 52 109 93 433 361 833 839 1133 1358 62 106 207 392 256 505 9 20 22 52 30
70 125 286 281 824 322 1107 3 19 7 46 9 60 12 62 23 148 31 225 3 33 7 71 10
85 25 155 25 823 -1 1005 -2 17 -6 54 -10 84 -5 47 -11 93 -30 226 -3 22 -8
51 -11 65 -2 14 -6 36 -9 50 -5 25 -22 113 -31 160 -3 14 -12 52 -21 85 -8 33
-16 67 -18 75 -12 58 -91 335 -105 365 -5 11 -18 49 -30 84 -23 71 -82 224
-110 286 -10 22 -32 74 -50 115 -51 118 -200 404 -280 535 -300 497 -669 926
-1120 1305 -10 8 -29 24 -42 35 -70 58 -285 216 -390 286 -413 274 -899 505
-1338 636 -176 52 -446 118 -565 137 -36 6 -82 14 -110 20 -11 2 -45 7 -75 11
-30 4 -62 9 -71 10 -29 6 -110 14 -294 32 -49 4 -642 12 -647 8z"/>
<path d="M30 4240 c0 -5 5 -10 11 -10 5 0 7 5 4 10 -3 6 -8 10 -11 10 -2 0 -4
-4 -4 -10z"/>
<path d="M115 3760 c-3 -5 -1 -10 4 -10 6 0 11 5 11 10 0 6 -2 10 -4 10 -3 0
-8 -4 -11 -10z"/>
<path d="M30 3679 c0 -5 5 -7 10 -4 6 3 10 8 10 11 0 2 -4 4 -10 4 -5 0 -10
-5 -10 -11z"/>
<path d="M156 3367 c3 -10 9 -15 12 -12 3 3 0 11 -7 18 -10 9 -11 8 -5 -6z"/>
<path d="M350 2976 c0 -2 8 -10 18 -17 15 -13 16 -12 3 4 -13 16 -21 21 -21
13z"/>
<path d="M395 2920 c-3 -5 -1 -10 4 -10 6 0 11 5 11 10 0 6 -2 10 -4 10 -3 0
-8 -4 -11 -10z"/>
<path d="M636 2393 c-6 -14 -5 -15 5 -6 7 7 10 15 7 18 -3 3 -9 -2 -12 -12z"/>
<path d="M636 2313 c-6 -14 -5 -15 5 -6 7 7 10 15 7 18 -3 3 -9 -2 -12 -12z"/>
<path d="M675 2280 c3 -5 8 -10 11 -10 2 0 4 5 4 10 0 6 -5 10 -11 10 -5 0 -7
-4 -4 -10z"/>
<path d="M876 1993 c-6 -14 -5 -15 5 -6 7 7 10 15 7 18 -3 3 -9 -2 -12 -12z"/>
<path d="M995 1960 c-3 -5 -1 -10 4 -10 6 0 11 5 11 10 0 6 -2 10 -4 10 -3 0
-8 -4 -11 -10z"/>
<path d="M1070 1800 c0 -5 5 -10 11 -10 5 0 7 5 4 10 -3 6 -8 10 -11 10 -2 0
-4 -4 -4 -10z"/>
<path d="M1276 1567 c3 -10 9 -15 12 -12 3 3 0 11 -7 18 -10 9 -11 8 -5 -6z"/>
<path d="M1350 1561 c0 -6 4 -13 10 -16 6 -3 7 1 4 9 -7 18 -14 21 -14 7z"/>
<path d="M1315 1520 c-3 -5 -1 -10 4 -10 6 0 11 5 11 10 0 6 -2 10 -4 10 -3 0
-8 -4 -11 -10z"/>
<path d="M1397 1453 c-10 -9 -9 -23 1 -23 5 0 9 7 9 15 0 17 -1 18 -10 8z"/>
<path d="M1395 1360 c3 -5 8 -10 11 -10 2 0 4 5 4 10 0 6 -5 10 -11 10 -5 0
-7 -4 -4 -10z"/>
<path d="M1670 1239 c0 -5 5 -7 10 -4 6 3 10 8 10 11 0 2 -4 4 -10 4 -5 0 -10
-5 -10 -11z"/>
<path d="M1719 1218 c-5 -18 -6 -38 -1 -34 7 8 12 36 6 36 -2 0 -4 -1 -5 -2z"/>
<path d="M1715 1120 c3 -5 8 -10 11 -10 2 0 4 5 4 10 0 6 -5 10 -11 10 -5 0
-7 -4 -4 -10z"/>
<path d="M1715 1040 c3 -5 8 -10 11 -10 2 0 4 5 4 10 0 6 -5 10 -11 10 -5 0
-7 -4 -4 -10z"/>
<path d="M2110 921 c0 -6 4 -13 10 -16 6 -3 7 1 4 9 -7 18 -14 21 -14 7z"/>
<path d="M2036 838 c3 -5 10 -6 15 -3 13 9 11 12 -6 12 -8 0 -12 -4 -9 -9z"/>
<path d="M2110 839 c0 -5 5 -7 10 -4 6 3 10 8 10 11 0 2 -4 4 -10 4 -5 0 -10
-5 -10 -11z"/>
<path d="M2270 760 c0 -5 5 -10 11 -10 5 0 7 5 4 10 -3 6 -8 10 -11 10 -2 0
-4 -4 -4 -10z"/>
<path d="M2270 679 c0 -5 5 -7 10 -4 6 3 10 8 10 11 0 2 -4 4 -10 4 -5 0 -10
-5 -10 -11z"/>
<path d="M3230 279 c0 -5 5 -7 10 -4 6 3 10 8 10 11 0 2 -4 4 -10 4 -5 0 -10
-5 -10 -11z"/>
<path d="M3470 119 c0 -5 5 -7 10 -4 6 3 10 8 10 11 0 2 -4 4 -10 4 -5 0 -10
-5 -10 -11z"/>
<path d="M3990 96 c0 -2 8 -10 18 -17 15 -13 16 -12 3 4 -13 16 -21 21 -21 13z"/>
</g>
</svg>
